<?xml version="1.0" encoding="UTF-8" standalone="no"?>
<!DOCTYPE svg PUBLIC "-//W3C//DTD SVG 1.1//EN" "http://www.w3.org/Graphics/SVG/1.1/DTD/svg11.dtd">
<svg width="100%" height="100%" viewBox="0 0 1326 401" version="1.1" xmlns="http://www.w3.org/2000/svg" xmlns:xlink="http://www.w3.org/1999/xlink" xml:space="preserve" xmlns:serif="http://www.serif.com/" style="fill-rule:evenodd;clip-rule:evenodd;stroke-linejoin:round;stroke-miterlimit:2;">
    <path d="M886.367,199.558C886.367,206.009 886.367,215.284 885.154,218.509L746.852,218.509C753.302,241.898 771.851,256.416 797.253,256.416C818.222,256.818 833.544,247.544 844.429,234.235L878.703,266.093C861.769,287.464 833.142,303.189 793.625,303.189C735.966,303.189 692.418,262.867 692.418,201.173C692.418,141.497 733.949,99.962 789.997,99.962C847.655,99.962 886.367,141.9 886.367,199.558ZM791.607,146.333C770.241,146.333 753.302,158.028 747.254,180.608L833.947,180.608C828.704,160.046 814.593,146.333 791.607,146.333ZM1025.07,99.962C1067.41,99.962 1096.84,122.547 1096.84,183.027L1096.84,299.964L1044.02,299.964L1044.02,196.333C1044.02,158.833 1030.72,147.143 1006.12,147.143C979.514,147.143 961.365,165.687 961.365,200.771L961.365,299.964L908.543,299.964L908.543,103.188L961.365,103.188L961.365,128.595L962.168,128.595C978.294,109.645 1000.88,99.962 1025.07,99.962ZM1221.04,303.189C1158.54,303.189 1116.61,260.446 1116.61,201.576C1116.61,142.706 1158.54,99.962 1221.04,99.962C1282.33,99.962 1325.88,141.095 1325.88,201.576C1325.88,262.057 1282.33,303.189 1221.04,303.189ZM1221.04,256.009C1249.66,256.009 1272.25,233.429 1272.25,201.576C1272.25,169.32 1250.48,147.143 1221.04,147.143C1190.39,147.143 1169.83,170.528 1169.83,201.576C1169.83,232.221 1191.2,256.009 1221.04,256.009ZM500.407,299.964L500.407,99.962L572.709,99.962C635.975,99.962 676.645,141.09 676.645,200.245C676.645,259.118 638.517,299.964 573.557,299.964L500.407,299.964ZM552.375,252.357L569.886,252.357C600.389,252.357 620.441,228.977 620.441,200.245C620.441,170.385 600.106,147.569 573.839,147.569L552.375,147.569L552.375,252.357Z"/>
    <path id="outline" d="M261.684,245.149C295.545,246.811 330.909,231.614 341.887,201.373C352.865,171.132 348.608,141.225 309.226,123.287C269.845,105.343 251.657,84.015 219.841,71.147C199.054,62.739 175.926,67.729 152.177,80.854C88.214,116.205 30.903,227.892 57.319,331.372C57.698,332.791 57.062,334.275 55.775,334.987C54.496,335.691 52.89,335.426 51.898,334.347C16.282,295.06 -3.759,241.788 0.593,184.791C8.998,74.728 105.178,-7.806 215.241,0.599C325.296,9.003 407.83,105.182 399.425,215.245C395.896,261.466 376.89,302.829 347.866,334.644C325.671,357.444 297.393,367.579 273.796,367.16C256.689,366.857 239.957,360.048 228.387,350.094C211.871,335.866 205.196,319.609 202.913,301.459C202.341,296.952 202.677,284.662 205.025,276.15C206.77,269.807 211.21,257.551 217.701,252.193C210.106,248.927 200.34,241.805 197.255,238.388C196.502,237.55 196.603,236.232 197.281,235.331C197.952,234.422 199.147,234.069 200.206,234.451C206.734,236.69 214.683,238.895 223.066,240.302C234.087,242.146 247.795,244.461 261.684,245.149ZM192.777,85.086C203.566,84.24 212.979,93.449 214.602,105.695C216.766,122.009 210.78,138.861 191.091,139.249C174.272,139.584 169.176,122.624 170.291,112.349C171.398,102.074 179.868,86.099 192.777,85.086Z"/>
</svg>
