 <svg
      width="100%"
      height="auto"
      viewBox="0 0 40 48"
      version="1.1"
      xmlns="http://www.w3.org/2000/svg"
      style="fill-rule:evenodd;clip-rule:evenodd;stroke-linejoin:round;stroke-miterlimit:2;"
    >
  
      <path
        d="M18.258,46.91c-8.256,-1.041 -14.722,-7.55 -16.71,-12.745c-2.411,-6.302 -1.521,-13.628 -0.564,-16.105c0.06,-0.116 0.17,-0.198 0.299,-0.221c0.127,-0.024 0.259,0.012 0.357,0.098c0.445,0.367 0.955,0.692 1.494,0.98c1.289,-9.057 6.445,-15.594 12.586,-17.916c7.832,-2.959 14.934,1.008 15.743,7.091c3.141,2.747 6.826,7.338 8.031,13.963c1.215,6.677 0.108,14.678 -5.7,19.906c3.536,0.35 6.215,1 6.237,2.057c0.045,2.052 -10.26,3.142 -17.883,3.142c-1.466,0 -2.767,-0.091 -3.89,-0.25Z"
        style="fill:#002633;"
      />
      <path
        d="M15.017,14.737c-0.031,0.001 -0.061,0.01 -0.087,0.026c-2.563,1.578 -3.307,8.19 -3.351,10.814c-0,0.093 -0.038,0.181 -0.105,0.245c-0.067,0.064 -0.157,0.097 -0.249,0.092c-2.29,-0.187 -6.382,-1.492 -7.748,-2.631c-0.037,-0.037 -0.094,-0.05 -0.144,-0.032c-0.05,0.018 -0.085,0.063 -0.091,0.116c-0.216,2.446 0.088,6.873 1.967,10.167c1.951,3.423 8.192,9.677 18.089,7.983c9.897,-1.695 13.246,-10.709 12.908,-16.672c-0.325,-5.719 -2.665,-9.813 -4.689,-11.844c-0.049,-0.048 -0.122,-0.063 -0.186,-0.04c-0.065,0.023 -0.111,0.081 -0.119,0.149c-0.442,2.543 -3.22,7.354 -5.17,8.001c-0.132,0.029 -0.27,-0.025 -0.346,-0.137c-1.864,-2.612 -6.836,-6.413 -10.679,-6.237Z"
        style="fill:#fefdf0;"
      />
      <ellipse
        cx="18.692"
        cy="7.319"
        rx="1.558"
        ry="1.952"
        style="fill:#fff;"
      />
      <ellipse
        cx="25.883"
        cy="7.319"
        rx="1.559"
        ry="1.952"
        style="fill:#fff;"
      />
    </svg>